STARTFONT 2.3
FONT -FontForge-Hanalei-Book-R-Normal--12-120-72-72-P-60-ISO10646-1
SIZE 12 72 72  4
FONTBOUNDINGBOX 16 17 -1 -4
COMMENT "Generated by fontforge, http://fontforge.sourceforge.net"
COMMENT "Copyright (c) 2012 by Brian J. Bonislawsky DBA Astigmatic (AOETI) (astigma@astigmatic.com), with ReservedFont Name "Hanalei""
STARTPROPERTIES 40
FOUNDRY "FontForge"
FAMILY_NAME "Hanalei"
WEIGHT_NAME "Book"
SLANT "R"
SETWIDTH_NAME "Normal"
ADD_STYLE_NAME ""
PIXEL_SIZE 12
POINT_SIZE 120
RESOLUTION_X 72
RESOLUTION_Y 72
SPACING "P"
AVERAGE_WIDTH 60
CHARSET_REGISTRY "ISO10646"
CHARSET_ENCODING "1"
FONTNAME_REGISTRY ""
CHARSET_COLLECTIONS "ISO8859-2 ISO8859-9 ISO8859-4 ISO10646-1"
BITS_PER_PIXEL 4
FONT_NAME "Hanalei-Regular"
FACE_NAME "Hanalei"
COPYRIGHT "Copyright (c) 2012 by Brian J. Bonislawsky DBA Astigmatic (AOETI) (astigma@astigmatic.com), with ReservedFont Name "Hanalei""
FONT_VERSION "1.000"
FONT_ASCENT 10
FONT_DESCENT 2
UNDERLINE_POSITION -2
UNDERLINE_THICKNESS 1
X_HEIGHT 8
CAP_HEIGHT 8
RAW_ASCENT 799
RAW_DESCENT 200
NORM_SPACE 2
RELATIVE_WEIGHT 40
RELATIVE_SETWIDTH 50
SUPERSCRIPT_X 0
SUPERSCRIPT_Y 5
SUPERSCRIPT_SIZE 7
SUBSCRIPT_X 0
SUBSCRIPT_Y 1
SUBSCRIPT_SIZE 7
AVG_LOWERCASE_WIDTH 64
AVG_UPPERCASE_WIDTH 63
ENDPROPERTIES
CHARS 366
STARTCHAR space
ENCODING 32
SWIDTH 200 0
DWIDTH 2 0
BBX 1 1 0 0
BITMAP
00
ENDCHAR
STARTCHAR exclam
ENCODING 33
SWIDTH 257 0
DWIDTH 3 0
BBX 3 10 0 -1
BITMAP
1410
5050
4040
6440
4040
5040
3430
3420
4240
0200
ENDCHAR
STARTCHAR quotedbl
ENCODING 34
SWIDTH 476 0
DWIDTH 6 0
BBX 6 6 0 3
BITMAP
443542
404413
644734
404413
535634
020110
ENDCHAR
STARTCHAR numbersign
ENCODING 35
SWIDTH 1076 0
DWIDTH 13 0
BBX 13 9 0 0
BITMAP
15401531322200
41544054127750
41554156458040
54649454044040
40609044078550
54755556514040
40560552544410
40531360644500
44506960644500
ENDCHAR
STARTCHAR dollar
ENCODING 36
SWIDTH 453 0
DWIDTH 5 0
BBX 6 12 0 -2
BITMAP
004300
031400
025760
456132
505530
756610
054060
039581
512451
455600
041400
014300
ENDCHAR
STARTCHAR percent
ENCODING 37
SWIDTH 889 0
DWIDTH 11 0
BBX 11 9 0 0
BITMAP
132100000000
541515500000
345324400000
365254400000
714460543300
033253553530
000045332130
000134355030
000143354720
ENDCHAR
STARTCHAR ampersand
ENCODING 38
SWIDTH 627 0
DWIDTH 8 0
BBX 8 10 0 -1
BITMAP
01745320
06235550
05076150
01742500
04607100
23345552
51980504
75332352
54446510
10000000
ENDCHAR
STARTCHAR quotesingle
ENCODING 39
SWIDTH 246 0
DWIDTH 3 0
BBX 3 6 0 3
BITMAP
4430
4040
6440
4040
5350
0200
ENDCHAR
STARTCHAR parenleft
ENCODING 40
SWIDTH 387 0
DWIDTH 5 0
BBX 6 11 -1 -1
BITMAP
000100
000661
005150
017440
050500
142300
085500
015440
006142
000505
000252
ENDCHAR
STARTCHAR parenright
ENCODING 41
SWIDTH 386 0
DWIDTH 5 0
BBX 5 11 0 -1
BITMAP
010000
345000
324200
044600
023330
005050
026650
053500
415200
514000
450000
ENDCHAR
STARTCHAR asterisk
ENCODING 42
SWIDTH 517 0
DWIDTH 6 0
BBX 6 6 0 3
BITMAP
003400
214402
536655
155363
055541
054351
ENDCHAR
STARTCHAR plus
ENCODING 43
SWIDTH 458 0
DWIDTH 6 0
BBX 6 6 0 1
BITMAP
004300
022400
546662
534542
133510
015400
ENDCHAR
STARTCHAR comma
ENCODING 44
SWIDTH 228 0
DWIDTH 3 0
BBX 4 4 -1 -2
BITMAP
0151
0505
3150
0520
ENDCHAR
STARTCHAR hyphen
ENCODING 45
SWIDTH 465 0
DWIDTH 6 0
BBX 6 3 0 2
BITMAP
545652
545552
110010
ENDCHAR
STARTCHAR period
ENCODING 46
SWIDTH 202 0
DWIDTH 2 0
BBX 3 3 0 -1
BITMAP
4510
5510
1200
ENDCHAR
STARTCHAR slash
ENCODING 47
SWIDTH 453 0
DWIDTH 5 0
BBX 6 9 0 0
BITMAP
000210
000551
004150
007350
032410
073500
133300
505000
454000
ENDCHAR
STARTCHAR zero
ENCODING 48
SWIDTH 646 0
DWIDTH 8 0
BBX 8 9 0 0
BITMAP
00352000
01508200
07361420
32437450
85402405
60615636
24473460
03831500
00255000
ENDCHAR
STARTCHAR one
ENCODING 49
SWIDTH 400 0
DWIDTH 5 0
BBX 6 10 -1 -1
BITMAP
000530
015615
150604
055734
000503
000614
000624
000413
000634
000120
ENDCHAR
STARTCHAR two
ENCODING 50
SWIDTH 502 0
DWIDTH 6 0
BBX 6 10 0 -1
BITMAP
002100
033740
423433
533515
022557
025451
340510
646645
555545
011111
ENDCHAR
STARTCHAR three
ENCODING 51
SWIDTH 456 0
DWIDTH 5 0
BBX 6 10 0 -1
BITMAP
130000
524540
445471
036450
345700
181251
019563
544153
534400
010000
ENDCHAR
STARTCHAR four
ENCODING 52
SWIDTH 514 0
DWIDTH 6 0
BBX 7 10 -1 -1
BITMAP
00012300
00055350
00424140
01649340
05078460
15414040
02746460
00005040
00006250
00001200
ENDCHAR
STARTCHAR five
ENCODING 53
SWIDTH 500 0
DWIDTH 6 0
BBX 6 9 0 0
BITMAP
021231
436614
407543
447220
601775
254624
111224
546548
546443
ENDCHAR
STARTCHAR six
ENCODING 54
SWIDTH 520 0
DWIDTH 6 0
BBX 7 10 0 -1
BITMAP
01410000
04060000
05050000
07360000
14435000
54625510
50575430
50711700
65454100
00300000
ENDCHAR
STARTCHAR seven
ENCODING 55
SWIDTH 423 0
DWIDTH 5 0
BBX 6 10 0 -1
BITMAP
213120
536350
646581
006450
005140
026400
051600
050500
065300
001000
ENDCHAR
STARTCHAR eight
ENCODING 56
SWIDTH 527 0
DWIDTH 6 0
BBX 7 10 0 -1
BITMAP
02121200
43465600
74655700
14470500
06244100
05517000
22572300
51661510
48467A10
02000100
ENDCHAR
STARTCHAR nine
ENCODING 57
SWIDTH 500 0
DWIDTH 6 0
BBX 7 10 0 -1
BITMAP
00012000
24746500
50346510
75782500
42424200
03805000
01444000
05050000
05350000
00200000
ENDCHAR
STARTCHAR colon
ENCODING 58
SWIDTH 245 0
DWIDTH 3 0
BBX 3 8 0 -1
BITMAP
0200
4240
3420
0000
0000
3430
4240
0200
ENDCHAR
STARTCHAR semicolon
ENCODING 59
SWIDTH 270 0
DWIDTH 3 0
BBX 4 9 -1 -2
BITMAP
0021
0145
0054
0000
0000
0052
0415
1441
0430
ENDCHAR
STARTCHAR less
ENCODING 60
SWIDTH 445 0
DWIDTH 5 0
BBX 5 7 0 1
BITMAP
000320
016350
353350
505300
654600
254160
004550
ENDCHAR
STARTCHAR equal
ENCODING 61
SWIDTH 484 0
DWIDTH 6 0
BBX 6 6 0 1
BITMAP
444653
411414
143330
444653
411414
143330
ENDCHAR
STARTCHAR greater
ENCODING 62
SWIDTH 445 0
DWIDTH 5 0
BBX 6 8 0 0
BITMAP
040000
515300
344350
015250
036471
523440
454100
010000
ENDCHAR
STARTCHAR question
ENCODING 63
SWIDTH 455 0
DWIDTH 5 0
BBX 6 10 0 -1
BITMAP
140000
515740
443132
027573
080430
057100
055000
154000
055000
021000
ENDCHAR
STARTCHAR at
ENCODING 64
SWIDTH 812 0
DWIDTH 10 0
BBX 10 10 0 -1
BITMAP
0445465500
4545445440
4245454440
5364546540
4151333551
5375566613
4163131544
4066344440
2733600000
0013400000
ENDCHAR
STARTCHAR A
ENCODING 65
SWIDTH 507 0
DWIDTH 6 0
BBX 7 9 0 0
BITMAP
01410000
05072000
05044000
07445000
14475000
55686610
40540240
50756600
55307600
ENDCHAR
STARTCHAR B
ENCODING 66
SWIDTH 533 0
DWIDTH 6 0
BBX 7 10 0 -1
BITMAP
16530000
55036410
53761040
64655710
50545400
54753510
40793520
65344720
73343000
04200000
ENDCHAR
STARTCHAR C
ENCODING 67
SWIDTH 515 0
DWIDTH 6 0
BBX 7 10 0 -1
BITMAP
04441100
13043610
07654610
36600000
31500000
54500000
50533500
50761320
57664500
03000000
ENDCHAR
STARTCHAR D
ENCODING 68
SWIDTH 520 0
DWIDTH 6 0
BBX 7 10 0 -1
BITMAP
15510000
55051000
43508000
54760510
50515230
54554540
40844400
40424000
54750000
00300000
ENDCHAR
STARTCHAR E
ENCODING 69
SWIDTH 490 0
DWIDTH 6 0
BBX 6 9 0 0
BITMAP
143432
505525
406545
545110
506350
546450
407421
404535
547544
ENDCHAR
STARTCHAR F
ENCODING 70
SWIDTH 475 0
DWIDTH 6 0
BBX 6 9 0 0
BITMAP
143432
505525
406545
545110
506350
546450
405000
404000
545000
ENDCHAR
STARTCHAR G
ENCODING 71
SWIDTH 557 0
DWIDTH 7 0
BBX 7 10 0 -1
BITMAP
04441100
13043610
07654610
36600000
31505430
54504130
50537340
50765040
57666440
03000000
ENDCHAR
STARTCHAR H
ENCODING 72
SWIDTH 611 0
DWIDTH 7 0
BBX 8 9 0 0
BITMAP
14202420
50405050
50405050
64506450
50505281
54756504
40544561
40645050
54505440
ENDCHAR
STARTCHAR I
ENCODING 73
SWIDTH 266 0
DWIDTH 3 0
BBX 3 9 0 0
BITMAP
1420
5040
5040
6450
5050
5450
4050
4040
5450
ENDCHAR
STARTCHAR J
ENCODING 74
SWIDTH 484 0
DWIDTH 6 0
BBX 7 10 -1 -1
BITMAP
00003410
00005040
00004040
00007340
02304140
14417340
06265140
00806230
00245630
00033000
ENDCHAR
STARTCHAR K
ENCODING 75
SWIDTH 541 0
DWIDTH 7 0
BBX 7 9 0 0
BITMAP
14200100
50405430
40453240
54744500
50507000
54753200
40883500
40432410
54506510
ENDCHAR
STARTCHAR L
ENCODING 76
SWIDTH 467 0
DWIDTH 6 0
BBX 6 9 0 0
BITMAP
142000
504000
504000
645000
505000
545000
406211
405535
547555
ENDCHAR
STARTCHAR M
ENCODING 77
SWIDTH 733 0
DWIDTH 9 0
BBX 9 9 0 0
BITMAP
0340034000
0507051600
0526144500
2663845500
3273807600
5454639320
4057457350
5045085050
6534453460
ENDCHAR
STARTCHAR N
ENCODING 78
SWIDTH 598 0
DWIDTH 7 0
BBX 7 9 0 0
BITMAP
15301520
50545050
50455040
64648450
50609040
54745550
40560540
40441460
54516950
ENDCHAR
STARTCHAR O
ENCODING 79
SWIDTH 612 0
DWIDTH 7 0
BBX 7 10 0 -1
BITMAP
04441200
13043660
07655650
36606450
31504050
54503460
50535660
50762090
57654670
03000000
ENDCHAR
STARTCHAR P
ENCODING 80
SWIDTH 513 0
DWIDTH 6 0
BBX 7 10 0 -1
BITMAP
05510000
55056300
54760140
64547710
40762500
52434000
52720000
50400000
52500000
02000000
ENDCHAR
STARTCHAR Q
ENCODING 81
SWIDTH 612 0
DWIDTH 7 0
BBX 7 11 0 -2
BITMAP
04441200
13043660
07655650
36606450
31504050
54503460
50535660
50762090
57666670
03414000
00244000
ENDCHAR
STARTCHAR R
ENCODING 82
SWIDTH 532 0
DWIDTH 6 0
BBX 7 10 0 -1
BITMAP
04500000
55056200
44650240
64546720
50784510
51645100
53874500
40423320
51504330
03101100
ENDCHAR
STARTCHAR S
ENCODING 83
SWIDTH 442 0
DWIDTH 5 0
BBX 6 10 0 -1
BITMAP
124450
685022
507440
235200
070500
014530
008150
646423
545650
100000
ENDCHAR
STARTCHAR T
ENCODING 84
SWIDTH 453 0
DWIDTH 5 0
BBX 7 9 -1 0
BITMAP
04454510
14031040
05656430
00455000
00414000
00424000
00436000
00404000
00446000
ENDCHAR
STARTCHAR U
ENCODING 85
SWIDTH 583 0
DWIDTH 7 0
BBX 7 10 0 -1
BITMAP
04303410
13505140
23504140
54507350
50404040
64506450
40537540
50761360
56666950
04000000
ENDCHAR
STARTCHAR V
ENCODING 86
SWIDTH 506 0
DWIDTH 6 0
BBX 6 10 0 -1
BITMAP
010000
653066
504234
545544
415414
053852
073340
054040
055640
003000
ENDCHAR
STARTCHAR W
ENCODING 87
SWIDTH 735 0
DWIDTH 9 0
BBX 9 10 0 -1
BITMAP
0100000200
6522435250
5147045040
6458668340
4154544410
0455663400
0760852600
0540670400
0575362500
0030003000
ENDCHAR
STARTCHAR X
ENCODING 88
SWIDTH 483 0
DWIDTH 6 0
BBX 6 9 0 0
BITMAP
010000
543454
505414
068550
054230
072750
234441
505505
552444
ENDCHAR
STARTCHAR Y
ENCODING 89
SWIDTH 484 0
DWIDTH 6 0
BBX 8 9 -1 0
BITMAP
00100200
15601561
14155050
03647340
00541500
00092500
00324200
00505000
00453000
ENDCHAR
STARTCHAR Z
ENCODING 90
SWIDTH 458 0
DWIDTH 6 0
BBX 7 9 -1 0
BITMAP
01333300
04142430
03465740
00074500
00323300
00825000
04153200
15083410
05764600
ENDCHAR
STARTCHAR bracketleft
ENCODING 91
SWIDTH 420 0
DWIDTH 5 0
BBX 5 11 0 -1
BITMAP
000110
074350
517450
504000
644000
404000
514000
535000
406320
525140
064440
ENDCHAR
STARTCHAR backslash
ENCODING 92
SWIDTH 453 0
DWIDTH 5 0
BBX 6 9 0 0
BITMAP
020000
525000
415000
065400
050500
014620
006050
003142
000650
ENDCHAR
STARTCHAR bracketright
ENCODING 93
SWIDTH 420 0
DWIDTH 5 0
BBX 5 11 0 -1
BITMAP
110000
534710
447150
005050
005470
005040
004150
005350
236050
515250
444600
ENDCHAR
STARTCHAR asciicircum
ENCODING 94
SWIDTH 353 0
DWIDTH 4 0
BBX 4 4 0 4
BITMAP
0470
3354
5545
0111
ENDCHAR
STARTCHAR underscore
ENCODING 95
SWIDTH 499 0
DWIDTH 6 0
BBX 6 4 0 -4
BITMAP
010000
444744
434644
010010
ENDCHAR
STARTCHAR grave
ENCODING 96
SWIDTH 183 0
DWIDTH 2 0
BBX 3 3 0 9
BITMAP
4400
5400
2610
ENDCHAR
STARTCHAR a
ENCODING 97
SWIDTH 507 0
DWIDTH 6 0
BBX 7 9 0 0
BITMAP
01410000
05072000
05044000
07445000
14475000
55686610
40540240
50756600
55307600
ENDCHAR
STARTCHAR b
ENCODING 98
SWIDTH 533 0
DWIDTH 6 0
BBX 7 10 0 -1
BITMAP
16530000
55036410
53761040
64655710
50545400
54753510
40793520
65344720
73343000
04200000
ENDCHAR
STARTCHAR c
ENCODING 99
SWIDTH 515 0
DWIDTH 6 0
BBX 7 10 0 -1
BITMAP
04441100
13043610
07654610
36600000
31500000
54500000
50533500
50761320
57664500
03000000
ENDCHAR
STARTCHAR d
ENCODING 100
SWIDTH 520 0
DWIDTH 6 0
BBX 7 10 0 -1
BITMAP
15510000
55051000
43508000
54760510
50515230
54554540
40844400
40424000
54750000
00300000
ENDCHAR
STARTCHAR e
ENCODING 101
SWIDTH 490 0
DWIDTH 6 0
BBX 6 9 0 0
BITMAP
143432
505525
406545
545110
506350
546450
407421
404535
547544
ENDCHAR
STARTCHAR f
ENCODING 102
SWIDTH 475 0
DWIDTH 6 0
BBX 6 9 0 0
BITMAP
143432
505525
406545
545110
506350
546450
405000
404000
545000
ENDCHAR
STARTCHAR g
ENCODING 103
SWIDTH 557 0
DWIDTH 7 0
BBX 7 10 0 -1
BITMAP
04441100
13043610
07654610
36600000
31505430
54504130
50537340
50765040
57666440
03000000
ENDCHAR
STARTCHAR h
ENCODING 104
SWIDTH 611 0
DWIDTH 7 0
BBX 8 9 0 0
BITMAP
14202420
50405050
50405050
64506450
50505281
54756504
40544561
40645050
54505440
ENDCHAR
STARTCHAR i
ENCODING 105
SWIDTH 266 0
DWIDTH 3 0
BBX 3 9 0 0
BITMAP
1420
5040
5040
6450
5050
5450
4050
4040
5450
ENDCHAR
STARTCHAR j
ENCODING 106
SWIDTH 482 0
DWIDTH 6 0
BBX 7 10 -1 -1
BITMAP
00003410
00005040
00004040
00007340
02304140
14417340
06265140
00806230
00245630
00033000
ENDCHAR
STARTCHAR k
ENCODING 107
SWIDTH 541 0
DWIDTH 7 0
BBX 7 9 0 0
BITMAP
14200100
50405430
40453240
54744500
50507000
54753200
40883500
40432410
54506510
ENDCHAR
STARTCHAR l
ENCODING 108
SWIDTH 467 0
DWIDTH 6 0
BBX 6 9 0 0
BITMAP
142000
504000
504000
645000
505000
545000
406211
405535
547555
ENDCHAR
STARTCHAR m
ENCODING 109
SWIDTH 733 0
DWIDTH 9 0
BBX 9 9 0 0
BITMAP
0340034000
0507051600
0526144500
2663845500
3273807600
5454639320
4057457350
5045085050
6534453460
ENDCHAR
STARTCHAR n
ENCODING 110
SWIDTH 598 0
DWIDTH 7 0
BBX 7 9 0 0
BITMAP
15301520
50545050
50455040
64648450
50609040
54745550
40560540
40441460
54516950
ENDCHAR
STARTCHAR o
ENCODING 111
SWIDTH 612 0
DWIDTH 7 0
BBX 7 10 0 -1
BITMAP
04441200
13043660
07655650
36606450
31504050
54503460
50535660
50762090
57654670
03000000
ENDCHAR
STARTCHAR p
ENCODING 112
SWIDTH 513 0
DWIDTH 6 0
BBX 7 10 0 -1
BITMAP
05510000
55056300
54760140
64547710
40762500
52434000
52720000
50400000
52500000
02000000
ENDCHAR
STARTCHAR q
ENCODING 113
SWIDTH 612 0
DWIDTH 7 0
BBX 7 11 0 -2
BITMAP
04441200
13043660
07655650
36606450
31504050
54503460
50535660
50762090
57666670
03414000
00244000
ENDCHAR
STARTCHAR r
ENCODING 114
SWIDTH 532 0
DWIDTH 6 0
BBX 7 10 0 -1
BITMAP
04500000
55056200
44650240
64546720
50784510
51645100
53874500
40423320
51504330
03101100
ENDCHAR
STARTCHAR s
ENCODING 115
SWIDTH 442 0
DWIDTH 5 0
BBX 6 10 0 -1
BITMAP
124450
685022
507440
235200
070500
014530
008150
646423
545650
100000
ENDCHAR
STARTCHAR t
ENCODING 116
SWIDTH 453 0
DWIDTH 5 0
BBX 7 9 -1 0
BITMAP
04454510
14031040
05656430
00455000
00414000
00424000
00436000
00404000
00446000
ENDCHAR
STARTCHAR u
ENCODING 117
SWIDTH 583 0
DWIDTH 7 0
BBX 7 10 0 -1
BITMAP
04303410
13505140
23504140
54507350
50404040
64506450
40537540
50761360
56666950
04000000
ENDCHAR
STARTCHAR v
ENCODING 118
SWIDTH 506 0
DWIDTH 6 0
BBX 6 10 0 -1
BITMAP
010000
653066
504234
545544
415414
053852
073340
054040
055640
003000
ENDCHAR
STARTCHAR w
ENCODING 119
SWIDTH 735 0
DWIDTH 9 0
BBX 9 10 0 -1
BITMAP
0100000200
6522435250
5147045040
6458668340
4154544410
0455663400
0760852600
0540670400
0575362500
0030003000
ENDCHAR
STARTCHAR x
ENCODING 120
SWIDTH 483 0
DWIDTH 6 0
BBX 6 9 0 0
BITMAP
010000
543454
505414
068550
054230
072750
234441
505505
552444
ENDCHAR
STARTCHAR y
ENCODING 121
SWIDTH 484 0
DWIDTH 6 0
BBX 8 9 -1 0
BITMAP
00100200
15601561
14155050
03647340
00541500
00092500
00324200
00505000
00453000
ENDCHAR
STARTCHAR z
ENCODING 122
SWIDTH 458 0
DWIDTH 6 0
BBX 7 9 -1 0
BITMAP
01333300
04142430
03465740
00074500
00323300
00825000
04153200
15083410
05764600
ENDCHAR
STARTCHAR braceleft
ENCODING 123
SWIDTH 473 0
DWIDTH 6 0
BBX 6 11 0 -1
BITMAP
000010
034634
050643
035500
447330
400640
446440
045500
050720
062325
016443
ENDCHAR
STARTCHAR bar
ENCODING 124
SWIDTH 263 0
DWIDTH 3 0
BBX 3 11 0 -1
BITMAP
0200
4460
4040
5240
5350
4040
5350
5150
4050
5040
2530
ENDCHAR
STARTCHAR braceright
ENCODING 125
SWIDTH 473 0
DWIDTH 6 0
BBX 6 11 0 -1
BITMAP
100000
546520
545230
033700
053742
065004
054643
034700
136140
514150
445500
ENDCHAR
STARTCHAR asciitilde
ENCODING 126
SWIDTH 456 0
DWIDTH 5 0
BBX 6 3 0 3
BITMAP
058451
435650
455830
ENDCHAR
STARTCHAR nonbreakingspace
ENCODING 160
SWIDTH 200 0
DWIDTH 2 0
BBX 1 1 0 0
BITMAP
00
ENDCHAR
STARTCHAR exclamdown
ENCODING 161
SWIDTH 259 0
DWIDTH 3 0
BBX 3 10 0 -1
BITMAP
0310
3250
2430
3440
4050
4050
4460
4040
5250
0200
ENDCHAR
STARTCHAR cent
ENCODING 162
SWIDTH 480 0
DWIDTH 6 0
BBX 6 12 0 -2
BITMAP
003400
004310
005652
254404
542541
665000
504000
407620
394435
006653
004400
004400
ENDCHAR
STARTCHAR sterling
ENCODING 163
SWIDTH 594 0
DWIDTH 7 0
BBX 7 9 0 0
BITMAP
00020000
01734500
02841310
03554400
57265300
55254400
15574220
04155250
04475450
ENDCHAR
STARTCHAR currency
ENCODING 164
SWIDTH 640 0
DWIDTH 8 0
BBX 8 7 0 1
BITMAP
35243351
50754523
07562570
33165423
18547460
51724633
35266452
ENDCHAR
STARTCHAR yen
ENCODING 165
SWIDTH 575 0
DWIDTH 7 0
BBX 7 8 0 0
BITMAP
45305440
51525140
06485500
05461600
05364600
06565600
03332000
02560000
ENDCHAR
STARTCHAR brokenbar
ENCODING 166
SWIDTH 258 0
DWIDTH 3 0
BBX 3 12 0 -2
BITMAP
1420
4050
5440
4040
4040
2430
3430
4040
5440
4040
5150
0310
ENDCHAR
STARTCHAR section
ENCODING 167
SWIDTH 474 0
DWIDTH 6 0
BBX 6 10 0 -1
BITMAP
135450
532222
636750
354392
136623
528650
365042
446662
434551
020000
ENDCHAR
STARTCHAR dieresis
ENCODING 168
SWIDTH 351 0
DWIDTH 4 0
BBX 5 2 0 9
BITMAP
554510
554600
ENDCHAR
STARTCHAR copyright
ENCODING 169
SWIDTH 719 0
DWIDTH 9 0
BBX 9 10 0 -1
BITMAP
0546464500
5544356430
4325444220
5448556420
4325204310
5445645430
4327544310
4256466520
4955464600
0000000100
ENDCHAR
STARTCHAR ordfeminine
ENCODING 170
SWIDTH 455 0
DWIDTH 5 0
BBX 7 9 -1 0
BITMAP
00133000
00561400
00540500
04573700
05474400
17336140
05714520
02544500
02544500
ENDCHAR
STARTCHAR guillemotleft
ENCODING 171
SWIDTH 689 0
DWIDTH 8 0
BBX 8 6 0 1
BITMAP
00550155
34063406
61606160
55336533
04250425
00310031
ENDCHAR
STARTCHAR logicalnot
ENCODING 172
SWIDTH 591 0
DWIDTH 7 0
BBX 7 5 0 0
BITMAP
54474920
52346150
13134140
00004040
00001530
ENDCHAR
STARTCHAR uni00AD
ENCODING 173
SWIDTH 465 0
DWIDTH 6 0
BBX 6 3 0 2
BITMAP
545652
545552
110010
ENDCHAR
STARTCHAR registered
ENCODING 174
SWIDTH 719 0
DWIDTH 9 0
BBX 9 10 0 -1
BITMAP
0546464500
5544356430
4323124220
5448456420
4326544310
5445305430
4335204310
4256466520
4955464600
0000000100
ENDCHAR
STARTCHAR macron
ENCODING 175
SWIDTH 263 0
DWIDTH 3 0
BBX 4 2 0 9
BITMAP
4440
6451
ENDCHAR
STARTCHAR degree
ENCODING 176
SWIDTH 333 0
DWIDTH 4 0
BBX 4 4 0 4
BITMAP
1672
5454
6446
2341
ENDCHAR
STARTCHAR plusminus
ENCODING 177
SWIDTH 464 0
DWIDTH 6 0
BBX 6 9 0 -2
BITMAP
004300
013400
546662
534543
134510
015400
445552
512323
243330
ENDCHAR
STARTCHAR twosuperior
ENCODING 178
SWIDTH 324 0
DWIDTH 4 0
BBX 4 6 0 3
BITMAP
2220
4114
2652
3261
5514
1331
ENDCHAR
STARTCHAR threesuperior
ENCODING 179
SWIDTH 332 0
DWIDTH 4 0
BBX 4 6 0 3
BITMAP
2220
4116
2664
1643
4165
2320
ENDCHAR
STARTCHAR acute
ENCODING 180
SWIDTH 202 0
DWIDTH 2 0
BBX 3 3 0 9
BITMAP
0510
4330
6400
ENDCHAR
STARTCHAR mu
ENCODING 181
SWIDTH 582 0
DWIDTH 7 0
BBX 7 11 0 -2
BITMAP
02102300
24605230
23404230
32407340
54505040
41405250
51417650
54672450
40666850
50500200
24300000
ENDCHAR
STARTCHAR paragraph
ENCODING 182
SWIDTH 556 0
DWIDTH 7 0
BBX 7 10 0 -1
BITMAP
00035300
24810820
50346600
65827510
34274400
01615400
00066610
00004500
00024510
00002200
ENDCHAR
STARTCHAR periodcentered
ENCODING 183
SWIDTH 215 0
DWIDTH 3 0
BBX 3 3 0 3
BITMAP
2400
4220
3410
ENDCHAR
STARTCHAR cedilla
ENCODING 184
SWIDTH 237 0
DWIDTH 3 0
BBX 3 4 0 -3
BITMAP
0450
0440
6570
4300
ENDCHAR
STARTCHAR onesuperior
ENCODING 185
SWIDTH 286 0
DWIDTH 3 0
BBX 4 6 0 3
BITMAP
0120
3250
4440
1430
0331
0130
ENDCHAR
STARTCHAR ordmasculine
ENCODING 186
SWIDTH 476 0
DWIDTH 6 0
BBX 6 9 0 0
BITMAP
133220
412674
645804
403404
417755
651304
254451
154450
164450
ENDCHAR
STARTCHAR guillemotright
ENCODING 187
SWIDTH 689 0
DWIDTH 8 0
BBX 8 6 0 1
BITMAP
35204520
51345134
04360436
24382438
51505150
04000400
ENDCHAR
STARTCHAR onequarter
ENCODING 188
SWIDTH 790 0
DWIDTH 9 0
BBX 10 9 0 0
BITMAP
0130000000
2341451000
4333440000
1514540000
0306140420
0145233351
0004441751
0003447361
0004401451
ENDCHAR
STARTCHAR onehalf
ENCODING 189
SWIDTH 771 0
DWIDTH 9 0
BBX 9 10 0 -1
BITMAP
0130000000
2341451000
4333440000
1514540000
0306153320
0145262240
0004415340
0003422530
0004427550
0000001010
ENDCHAR
STARTCHAR threequarters
ENCODING 190
SWIDTH 817 0
DWIDTH 10 0
BBX 10 9 0 0
BITMAP
2220000000
4116343000
2664413000
1643551000
4165440230
2321542263
0003153463
0004128544
0003411164
ENDCHAR
STARTCHAR questiondown
ENCODING 191
SWIDTH 455 0
DWIDTH 5 0
BBX 6 10 0 -1
BITMAP
001420
004040
001520
004440
006440
350520
747500
534161
026451
000010
ENDCHAR
STARTCHAR Agrave
ENCODING 192
SWIDTH 507 0
DWIDTH 6 0
BBX 7 12 0 0
BITMAP
02510000
03240000
00550000
01410000
05072000
05044000
07445000
14475000
55686610
40540240
50756600
55307600
ENDCHAR
STARTCHAR Aacute
ENCODING 193
SWIDTH 507 0
DWIDTH 6 0
BBX 7 12 0 0
BITMAP
00025000
00054100
00163000
01410000
05072000
05044000
07445000
14475000
55686610
40540240
50756600
55307600
ENDCHAR
STARTCHAR Acircumflex
ENCODING 194
SWIDTH 507 0
DWIDTH 6 0
BBX 7 12 0 0
BITMAP
00580000
04354000
04545000
01410000
05072000
05044000
07445000
14475000
55686610
40540240
50756600
55307600
ENDCHAR
STARTCHAR Atilde
ENCODING 195
SWIDTH 507 0
DWIDTH 6 0
BBX 7 12 0 0
BITMAP
03565500
14644300
15368000
01410000
05072000
05044000
07445000
14475000
55686610
40540240
50756600
55307600
ENDCHAR
STARTCHAR Adieresis
ENCODING 196
SWIDTH 507 0
DWIDTH 6 0
BBX 7 11 0 0
BITMAP
05645100
05646000
01410000
05072000
05044000
07445000
14475000
55686610
40540240
50756600
55307600
ENDCHAR
STARTCHAR Aring
ENCODING 197
SWIDTH 507 0
DWIDTH 6 0
BBX 7 13 0 0
BITMAP
00441000
02364000
05676000
03445000
01410000
05072000
05044000
07445000
14475000
55686610
40540240
50756600
55307600
ENDCHAR
STARTCHAR AE
ENCODING 198
SWIDTH 797 0
DWIDTH 10 0
BBX 11 9 -1 0
BITMAP
000002433310
000167055140
000505075430
002739352000
005055063400
017267375300
050615183200
231636155240
056006475520
ENDCHAR
STARTCHAR Ccedilla
ENCODING 199
SWIDTH 515 0
DWIDTH 6 0
BBX 7 12 0 -3
BITMAP
04441100
13043610
07654610
36600000
31500000
54500000
50533500
50761320
57665500
03044000
03474000
01520000
ENDCHAR
STARTCHAR Egrave
ENCODING 200
SWIDTH 490 0
DWIDTH 6 0
BBX 6 12 0 0
BITMAP
015200
023400
005500
143432
505525
406545
545110
506350
546450
407421
404535
547544
ENDCHAR
STARTCHAR Eacute
ENCODING 201
SWIDTH 490 0
DWIDTH 6 0
BBX 6 12 0 0
BITMAP
000330
001450
004600
143432
505525
406545
545110
506350
546450
407421
404535
547544
ENDCHAR
STARTCHAR Ecircumflex
ENCODING 202
SWIDTH 490 0
DWIDTH 6 0
BBX 6 12 0 0
BITMAP
006800
043540
045450
143432
505525
406545
545110
506350
546450
407421
404535
547544
ENDCHAR
STARTCHAR Edieresis
ENCODING 203
SWIDTH 490 0
DWIDTH 6 0
BBX 6 11 0 0
BITMAP
055451
055560
143432
505525
406545
545110
506350
546450
407421
404535
547544
ENDCHAR
STARTCHAR Igrave
ENCODING 204
SWIDTH 266 0
DWIDTH 3 0
BBX 3 12 0 0
BITMAP
4400
5400
3610
1420
5040
5040
6450
5050
5450
4050
4040
5450
ENDCHAR
STARTCHAR Iacute
ENCODING 205
SWIDTH 266 0
DWIDTH 3 0
BBX 4 12 0 0
BITMAP
0042
0334
0550
1430
5040
5040
6450
5050
5450
4050
4040
5450
ENDCHAR
STARTCHAR Icircumflex
ENCODING 206
SWIDTH 266 0
DWIDTH 3 0
BBX 4 12 0 0
BITMAP
1670
5532
5454
1420
5040
5040
6450
5050
5450
4050
4040
5450
ENDCHAR
STARTCHAR Idieresis
ENCODING 207
SWIDTH 266 0
DWIDTH 3 0
BBX 5 11 -1 0
BITMAP
344550
254640
014200
050400
050400
064500
050500
054500
040500
040400
054500
ENDCHAR
STARTCHAR Eth
ENCODING 208
SWIDTH 669 0
DWIDTH 8 0
BBX 10 10 -1 -1
BITMAP
0002550000
0005515000
0004432800
0317485150
2323543451
1547755471
0004095420
0005043300
0006473000
0000130000
ENDCHAR
STARTCHAR Ntilde
ENCODING 209
SWIDTH 598 0
DWIDTH 7 0
BBX 7 12 0 0
BITMAP
00474540
02366410
03546600
15301520
50545050
50455040
64648450
50609040
54745550
40560540
40441460
54516950
ENDCHAR
STARTCHAR Ograve
ENCODING 210
SWIDTH 612 0
DWIDTH 7 0
BBX 7 13 0 -1
BITMAP
00260000
00423000
00054000
04441200
13043660
07655650
36606450
31504050
54503460
50535660
50762090
57654670
03000000
ENDCHAR
STARTCHAR Oacute
ENCODING 211
SWIDTH 612 0
DWIDTH 7 0
BBX 7 13 0 -1
BITMAP
00004300
00023500
00055000
04441200
13043660
07655650
36606450
31504050
54503460
50535660
50762090
57654670
03000000
ENDCHAR
STARTCHAR Ocircumflex
ENCODING 212
SWIDTH 612 0
DWIDTH 7 0
BBX 7 13 0 -1
BITMAP
00168000
00544300
00545400
04441200
13043660
07655650
36606450
31504050
54503460
50535660
50762090
57654670
03000000
ENDCHAR
STARTCHAR Otilde
ENCODING 213
SWIDTH 612 0
DWIDTH 7 0
BBX 7 13 0 -1
BITMAP
00465640
01465420
02545700
04441200
13043660
07655650
36606450
31504050
54503460
50535660
50762090
57654670
03000000
ENDCHAR
STARTCHAR Odieresis
ENCODING 214
SWIDTH 612 0
DWIDTH 7 0
BBX 7 12 0 -1
BITMAP
03455500
03545400
04441200
13043660
07655650
36606450
31504050
54503460
50535660
50762090
57654670
03000000
ENDCHAR
STARTCHAR multiply
ENCODING 215
SWIDTH 421 0
DWIDTH 5 0
BBX 5 6 0 1
BITMAP
010000
446540
413640
364340
527250
030300
ENDCHAR
STARTCHAR Oslash
ENCODING 216
SWIDTH 612 0
DWIDTH 7 0
BBX 7 10 0 -1
BITMAP
04441300
13046360
07665160
36655550
31543350
54807460
52376660
55182090
52554670
04300000
ENDCHAR
STARTCHAR Ugrave
ENCODING 217
SWIDTH 583 0
DWIDTH 7 0
BBX 7 13 0 -1
BITMAP
00440000
00540000
00261000
04303410
13505140
23504140
54507350
50404040
64506450
40537540
50761360
56666950
04000000
ENDCHAR
STARTCHAR Uacute
ENCODING 218
SWIDTH 583 0
DWIDTH 7 0
BBX 7 13 0 -1
BITMAP
00015000
00053200
00163000
04303410
13505140
23504140
54507350
50404040
64506450
40537540
50761360
56666950
04000000
ENDCHAR
STARTCHAR Ucircumflex
ENCODING 219
SWIDTH 583 0
DWIDTH 7 0
BBX 7 13 0 -1
BITMAP
00464000
02364100
03545200
04303410
13505140
23504140
54507350
50404040
64506450
40537540
50761360
56666950
04000000
ENDCHAR
STARTCHAR Udieresis
ENCODING 220
SWIDTH 583 0
DWIDTH 7 0
BBX 7 12 0 -1
BITMAP
04454400
04554400
04303410
13505140
23504140
54507350
50404040
64506450
40537540
50761360
56666950
04000000
ENDCHAR
STARTCHAR Yacute
ENCODING 221
SWIDTH 484 0
DWIDTH 6 0
BBX 8 11 -1 0
BITMAP
00004300
00023500
00155200
15601561
14155050
03647340
00541500
00092500
00324200
00505000
00453000
ENDCHAR
STARTCHAR Thorn
ENCODING 222
SWIDTH 520 0
DWIDTH 6 0
BBX 7 10 0 -1
BITMAP
04100000
53700000
55255000
66541430
40556520
52670610
52535000
40650000
52600000
02000000
ENDCHAR
STARTCHAR germandbls
ENCODING 223
SWIDTH 884 0
DWIDTH 11 0
BBX 11 10 0 -1
BITMAP
124450234520
685026844050
507445065420
235200434000
070500525000
014530053500
008150054410
646428475050
545655356610
100000100000
ENDCHAR
STARTCHAR agrave
ENCODING 224
SWIDTH 507 0
DWIDTH 6 0
BBX 7 12 0 0
BITMAP
02510000
03240000
00550000
01410000
05072000
05044000
07445000
14475000
55686610
40540240
50756600
55307600
ENDCHAR
STARTCHAR aacute
ENCODING 225
SWIDTH 507 0
DWIDTH 6 0
BBX 7 12 0 0
BITMAP
00025000
00054100
00163000
01410000
05072000
05044000
07445000
14475000
55686610
40540240
50756600
55307600
ENDCHAR
STARTCHAR acircumflex
ENCODING 226
SWIDTH 507 0
DWIDTH 6 0
BBX 7 12 0 0
BITMAP
00580000
04354000
04545000
01410000
05072000
05044000
07445000
14475000
55686610
40540240
50756600
55307600
ENDCHAR
STARTCHAR atilde
ENCODING 227
SWIDTH 507 0
DWIDTH 6 0
BBX 7 12 0 0
BITMAP
03565500
14644300
15368000
01410000
05072000
05044000
07445000
14475000
55686610
40540240
50756600
55307600
ENDCHAR
STARTCHAR adieresis
ENCODING 228
SWIDTH 507 0
DWIDTH 6 0
BBX 7 11 0 0
BITMAP
05645100
05646000
01410000
05072000
05044000
07445000
14475000
55686610
40540240
50756600
55307600
ENDCHAR
STARTCHAR aring
ENCODING 229
SWIDTH 507 0
DWIDTH 6 0
BBX 7 13 0 0
BITMAP
00441000
02364000
05676000
03445000
01410000
05072000
05044000
07445000
14475000
55686610
40540240
50756600
55307600
ENDCHAR
STARTCHAR ae
ENCODING 230
SWIDTH 797 0
DWIDTH 10 0
BBX 11 9 -1 0
BITMAP
000002433310
000167055140
000505075430
002739352000
005055063400
017267375300
050615183200
231636155240
056006475520
ENDCHAR
STARTCHAR ccedilla
ENCODING 231
SWIDTH 515 0
DWIDTH 6 0
BBX 7 12 0 -3
BITMAP
04441100
13043610
07654610
36600000
31500000
54500000
50533500
50761320
57665500
03044000
03474000
01520000
ENDCHAR
STARTCHAR egrave
ENCODING 232
SWIDTH 490 0
DWIDTH 6 0
BBX 6 12 0 0
BITMAP
015200
023400
005500
143432
505525
406545
545110
506350
546450
407421
404535
547544
ENDCHAR
STARTCHAR eacute
ENCODING 233
SWIDTH 490 0
DWIDTH 6 0
BBX 6 12 0 0
BITMAP
000330
001450
004600
143432
505525
406545
545110
506350
546450
407421
404535
547544
ENDCHAR
STARTCHAR ecircumflex
ENCODING 234
SWIDTH 490 0
DWIDTH 6 0
BBX 6 12 0 0
BITMAP
006800
043540
045450
143432
505525
406545
545110
506350
546450
407421
404535
547544
ENDCHAR
STARTCHAR edieresis
ENCODING 235
SWIDTH 490 0
DWIDTH 6 0
BBX 6 11 0 0
BITMAP
055451
055560
143432
505525
406545
545110
506350
546450
407421
404535
547544
ENDCHAR
STARTCHAR igrave
ENCODING 236
SWIDTH 266 0
DWIDTH 3 0
BBX 3 12 0 0
BITMAP
4400
5400
3610
1420
5040
5040
6450
5050
5450
4050
4040
5450
ENDCHAR
STARTCHAR iacute
ENCODING 237
SWIDTH 266 0
DWIDTH 3 0
BBX 4 12 0 0
BITMAP
0042
0334
0550
1430
5040
5040
6450
5050
5450
4050
4040
5450
ENDCHAR
STARTCHAR icircumflex
ENCODING 238
SWIDTH 266 0
DWIDTH 3 0
BBX 4 12 0 0
BITMAP
1670
5532
5454
1420
5040
5040
6450
5050
5450
4050
4040
5450
ENDCHAR
STARTCHAR idieresis
ENCODING 239
SWIDTH 266 0
DWIDTH 3 0
BBX 5 11 -1 0
BITMAP
344550
254640
014200
050400
050400
064500
050500
054500
040500
040400
054500
ENDCHAR
STARTCHAR eth
ENCODING 240
SWIDTH 669 0
DWIDTH 8 0
BBX 10 10 -1 -1
BITMAP
0002550000
0005515000
0004432800
0317485150
2323543451
1547755471
0004095420
0005043300
0006473000
0000130000
ENDCHAR
STARTCHAR ntilde
ENCODING 241
SWIDTH 598 0
DWIDTH 7 0
BBX 7 12 0 0
BITMAP
00474540
02366410
03546600
15301520
50545050
50455040
64648450
50609040
54745550
40560540
40441460
54516950
ENDCHAR
STARTCHAR ograve
ENCODING 242
SWIDTH 612 0
DWIDTH 7 0
BBX 7 13 0 -1
BITMAP
00260000
00423000
00054000
04441200
13043660
07655650
36606450
31504050
54503460
50535660
50762090
57654670
03000000
ENDCHAR
STARTCHAR oacute
ENCODING 243
SWIDTH 612 0
DWIDTH 7 0
BBX 7 13 0 -1
BITMAP
00004300
00023500
00055000
04441200
13043660
07655650
36606450
31504050
54503460
50535660
50762090
57654670
03000000
ENDCHAR
STARTCHAR ocircumflex
ENCODING 244
SWIDTH 612 0
DWIDTH 7 0
BBX 7 13 0 -1
BITMAP
00168000
00544300
00545400
04441200
13043660
07655650
36606450
31504050
54503460
50535660
50762090
57654670
03000000
ENDCHAR
STARTCHAR otilde
ENCODING 245
SWIDTH 612 0
DWIDTH 7 0
BBX 7 13 0 -1
BITMAP
00465640
01465420
02545700
04441200
13043660
07655650
36606450
31504050
54503460
50535660
50762090
57654670
03000000
ENDCHAR
STARTCHAR odieresis
ENCODING 246
SWIDTH 612 0
DWIDTH 7 0
BBX 7 12 0 -1
BITMAP
03455500
03545400
04441200
13043660
07655650
36606450
31504050
54503460
50535660
50762090
57654670
03000000
ENDCHAR
STARTCHAR divide
ENCODING 247
SWIDTH 457 0
DWIDTH 5 0
BBX 6 8 0 0
BITMAP
004200
012400
015300
546562
545552
115310
013400
004200
ENDCHAR
STARTCHAR oslash
ENCODING 248
SWIDTH 612 0
DWIDTH 7 0
BBX 7 10 0 -1
BITMAP
04441300
13046360
07665160
36655550
31543350
54807460
52376660
55182090
52554670
04300000
ENDCHAR
STARTCHAR ugrave
ENCODING 249
SWIDTH 583 0
DWIDTH 7 0
BBX 7 13 0 -1
BITMAP
00440000
00540000
00261000
04303410
13505140
23504140
54507350
50404040
64506450
40537540
50761360
56666950
04000000
ENDCHAR
STARTCHAR uacute
ENCODING 250
SWIDTH 583 0
DWIDTH 7 0
BBX 7 13 0 -1
BITMAP
00015000
00053200
00163000
04303410
13505140
23504140
54507350
50404040
64506450
40537540
50761360
56666950
04000000
ENDCHAR
STARTCHAR ucircumflex
ENCODING 251
SWIDTH 583 0
DWIDTH 7 0
BBX 7 13 0 -1
BITMAP
00464000
02364100
03545200
04303410
13505140
23504140
54507350
50404040
64506450
40537540
50761360
56666950
04000000
ENDCHAR
STARTCHAR udieresis
ENCODING 252
SWIDTH 583 0
DWIDTH 7 0
BBX 7 12 0 -1
BITMAP
04454400
04554400
04303410
13505140
23504140
54507350
50404040
64506450
40537540
50761360
56666950
04000000
ENDCHAR
STARTCHAR yacute
ENCODING 253
SWIDTH 484 0
DWIDTH 6 0
BBX 8 11 -1 0
BITMAP
00004300
00023500
00155200
15601561
14155050
03647340
00541500
00092500
00324200
00505000
00453000
ENDCHAR
STARTCHAR thorn
ENCODING 254
SWIDTH 520 0
DWIDTH 6 0
BBX 7 10 0 -1
BITMAP
04100000
53700000
55255000
66541430
40556520
52670610
52535000
40650000
52600000
02000000
ENDCHAR
STARTCHAR ydieresis
ENCODING 255
SWIDTH 484 0
DWIDTH 6 0
BBX 8 11 -1 0
BITMAP
01555600
00655500
00100200
15601561
14155050
03647340
00541500
00092500
00324200
00505000
00453000
ENDCHAR
STARTCHAR Amacron
ENCODING 256
SWIDTH 507 0
DWIDTH 6 0
BBX 7 11 0 0
BITMAP
02443000
04444000
01410000
05072000
05044000
07445000
14475000
55686610
40540240
50756600
55307600
ENDCHAR
STARTCHAR amacron
ENCODING 257
SWIDTH 507 0
DWIDTH 6 0
BBX 7 11 0 0
BITMAP
02443000
04444000
01410000
05072000
05044000
07445000
14475000
55686610
40540240
50756600
55307600
ENDCHAR
STARTCHAR Abreve
ENCODING 258
SWIDTH 507 0
DWIDTH 6 0
BBX 7 12 0 0
BITMAP
05435000
04565000
04845000
01410000
05072000
05044000
07445000
14475000
55686610
40540240
50756600
55307600
ENDCHAR
STARTCHAR abreve
ENCODING 259
SWIDTH 507 0
DWIDTH 6 0
BBX 7 12 0 0
BITMAP
05435000
04565000
04845000
01410000
05072000
05044000
07445000
14475000
55686610
40540240
50756600
55307600
ENDCHAR
STARTCHAR Aogonek
ENCODING 260
SWIDTH 507 0
DWIDTH 6 0
BBX 7 12 0 -3
BITMAP
01410000
05072000
05044000
07445000
14475000
55686610
40540240
50756600
55307700
00023600
00008340
00000510
ENDCHAR
STARTCHAR aogonek
ENCODING 261
SWIDTH 507 0
DWIDTH 6 0
BBX 7 12 0 -3
BITMAP
01410000
05072000
05044000
07445000
14475000
55686610
40540240
50756600
55307700
00023600
00008340
00000510
ENDCHAR
STARTCHAR Cacute
ENCODING 262
SWIDTH 515 0
DWIDTH 6 0
BBX 7 13 0 -1
BITMAP
00005100
00043300
00064000
04441100
13043610
07654610
36600000
31500000
54500000
50533500
50761320
57664500
03000000
ENDCHAR
STARTCHAR cacute
ENCODING 263
SWIDTH 515 0
DWIDTH 6 0
BBX 7 13 0 -1
BITMAP
00005100
00043300
00064000
04441100
13043610
07654610
36600000
31500000
54500000
50533500
50761320
57664500
03000000
ENDCHAR
STARTCHAR Ccircumflex
ENCODING 264
SWIDTH 515 0
DWIDTH 6 0
BBX 7 13 0 -1
BITMAP
00257000
00553200
00546400
04441100
13043610
07654610
36600000
31500000
54500000
50533500
50761320
57664500
03000000
ENDCHAR
STARTCHAR ccircumflex
ENCODING 265
SWIDTH 515 0
DWIDTH 6 0
BBX 7 13 0 -1
BITMAP
00257000
00553200
00546400
04441100
13043610
07654610
36600000
31500000
54500000
50533500
50761320
57664500
03000000
ENDCHAR
STARTCHAR Cdotaccent
ENCODING 266
SWIDTH 515 0
DWIDTH 6 0
BBX 7 12 0 -1
BITMAP
00244000
00164000
04441100
13043610
07654610
36600000
31500000
54500000
50533500
50761320
57664500
03000000
ENDCHAR
STARTCHAR cdotaccent
ENCODING 267
SWIDTH 515 0
DWIDTH 6 0
BBX 7 12 0 -1
BITMAP
00244000
00164000
04441100
13043610
07654610
36600000
31500000
54500000
50533500
50761320
57664500
03000000
ENDCHAR
STARTCHAR Ccaron
ENCODING 268
SWIDTH 515 0
DWIDTH 6 0
BBX 7 14 0 -1
BITMAP
00101000
01645400
00454200
00266000
04441100
13043610
07654610
36600000
31500000
54500000
50533500
50761320
57664500
03000000
ENDCHAR
STARTCHAR ccaron
ENCODING 269
SWIDTH 515 0
DWIDTH 6 0
BBX 7 14 0 -1
BITMAP
00101000
01645400
00454200
00266000
04441100
13043610
07654610
36600000
31500000
54500000
50533500
50761320
57664500
03000000
ENDCHAR
STARTCHAR Dcaron
ENCODING 270
SWIDTH 520 0
DWIDTH 6 0
BBX 7 13 0 -1
BITMAP
05556000
03354000
00580000
15510000
55051000
43508000
54760510
50515230
54554540
40844400
40424000
54750000
00300000
ENDCHAR
STARTCHAR dcaron
ENCODING 271
SWIDTH 520 0
DWIDTH 6 0
BBX 7 13 0 -1
BITMAP
05556000
03354000
00580000
15510000
55051000
43508000
54760510
50515230
54554540
40844400
40424000
54750000
00300000
ENDCHAR
STARTCHAR Dcroat
ENCODING 272
SWIDTH 669 0
DWIDTH 8 0
BBX 10 10 -1 -1
BITMAP
0002550000
0005515000
0004432800
0317485150
2323543451
1547755471
0004095420
0005043300
0006473000
0000130000
ENDCHAR
STARTCHAR dcroat
ENCODING 273
SWIDTH 669 0
DWIDTH 8 0
BBX 10 10 -1 -1
BITMAP
0002550000
0005515000
0004432800
0317485150
2323543451
1547755471
0004095420
0005043300
0006473000
0000130000
ENDCHAR
STARTCHAR Emacron
ENCODING 274
SWIDTH 490 0
DWIDTH 6 0
BBX 6 11 0 0
BITMAP
024420
044440
143432
505525
406545
545110
506350
546450
407421
404535
547544
ENDCHAR
STARTCHAR emacron
ENCODING 275
SWIDTH 490 0
DWIDTH 6 0
BBX 6 11 0 0
BITMAP
024420
044440
143432
505525
406545
545110
506350
546450
407421
404535
547544
ENDCHAR
STARTCHAR Ebreve
ENCODING 276
SWIDTH 490 0
DWIDTH 6 0
BBX 6 12 0 0
BITMAP
055341
044660
038460
143432
505525
406545
545110
506350
546450
407421
404535
547544
ENDCHAR
STARTCHAR ebreve
ENCODING 277
SWIDTH 490 0
DWIDTH 6 0
BBX 6 12 0 0
BITMAP
055341
044660
038460
143432
505525
406545
545110
506350
546450
407421
404535
547544
ENDCHAR
STARTCHAR Edotaccent
ENCODING 278
SWIDTH 490 0
DWIDTH 6 0
BBX 6 11 0 0
BITMAP
005500
006500
143432
505525
406545
545110
506350
546450
407421
404535
547544
ENDCHAR
STARTCHAR edotaccent
ENCODING 279
SWIDTH 490 0
DWIDTH 6 0
BBX 6 11 0 0
BITMAP
005500
006500
143432
505525
406545
545110
506350
546450
407421
404535
547544
ENDCHAR
STARTCHAR Eogonek
ENCODING 280
SWIDTH 490 0
DWIDTH 6 0
BBX 6 12 0 -3
BITMAP
143432
505525
406545
545110
506350
546450
407421
404535
547654
000560
000545
000032
ENDCHAR
STARTCHAR eogonek
ENCODING 281
SWIDTH 490 0
DWIDTH 6 0
BBX 6 12 0 -3
BITMAP
143432
505525
406545
545110
506350
546450
407421
404535
547654
000560
000545
000032
ENDCHAR
STARTCHAR Ecaron
ENCODING 282
SWIDTH 490 0
DWIDTH 6 0
BBX 6 12 0 0
BITMAP
055451
023550
005810
143432
505525
406545
545110
506350
546450
407421
404535
547544
ENDCHAR
STARTCHAR ecaron
ENCODING 283
SWIDTH 490 0
DWIDTH 6 0
BBX 6 12 0 0
BITMAP
055451
023550
005810
143432
505525
406545
545110
506350
546450
407421
404535
547544
ENDCHAR
STARTCHAR Gcircumflex
ENCODING 284
SWIDTH 557 0
DWIDTH 7 0
BBX 7 13 0 -1
BITMAP
00356000
00463200
01535300
04441100
13043610
07654610
36600000
31505430
54504130
50537340
50765040
57666440
03000000
ENDCHAR
STARTCHAR gcircumflex
ENCODING 285
SWIDTH 557 0
DWIDTH 7 0
BBX 7 13 0 -1
BITMAP
00356000
00463200
01535300
04441100
13043610
07654610
36600000
31505430
54504130
50537340
50765040
57666440
03000000
ENDCHAR
STARTCHAR Gbreve
ENCODING 286
SWIDTH 557 0
DWIDTH 7 0
BBX 7 13 0 -1
BITMAP
03515300
02366300
00767000
04441100
13043610
07654610
36600000
31505430
54504130
50537340
50765040
57666440
03000000
ENDCHAR
STARTCHAR gbreve
ENCODING 287
SWIDTH 557 0
DWIDTH 7 0
BBX 7 13 0 -1
BITMAP
03515300
02366300
00767000
04441100
13043610
07654610
36600000
31505430
54504130
50537340
50765040
57666440
03000000
ENDCHAR
STARTCHAR Gdotaccent
ENCODING 288
SWIDTH 557 0
DWIDTH 7 0
BBX 7 12 0 -1
BITMAP
00254000
00164000
04441100
13043610
07654610
36600000
31505430
54504130
50537340
50765040
57666440
03000000
ENDCHAR
STARTCHAR gdotaccent
ENCODING 289
SWIDTH 557 0
DWIDTH 7 0
BBX 7 12 0 -1
BITMAP
00254000
00164000
04441100
13043610
07654610
36600000
31505430
54504130
50537340
50765040
57666440
03000000
ENDCHAR
STARTCHAR Gcommaaccent
ENCODING 290
SWIDTH 557 0
DWIDTH 7 0
BBX 7 12 0 -3
BITMAP
04441100
13043610
07654610
36600000
31505430
54504130
50537340
50765040
57666440
03150000
00541000
01730000
ENDCHAR
STARTCHAR gcommaaccent
ENCODING 291
SWIDTH 557 0
DWIDTH 7 0
BBX 7 12 0 -3
BITMAP
04441100
13043610
07654610
36600000
31505430
54504130
50537340
50765040
57666440
03150000
00541000
01730000
ENDCHAR
STARTCHAR Hcircumflex
ENCODING 292
SWIDTH 611 0
DWIDTH 7 0
BBX 8 12 0 0
BITMAP
00257000
00563200
01535400
14202420
50405050
50405050
64506450
50505281
54756504
40544561
40645050
54505440
ENDCHAR
STARTCHAR hcircumflex
ENCODING 293
SWIDTH 611 0
DWIDTH 7 0
BBX 8 12 0 0
BITMAP
00257000
00563200
01535400
14202420
50405050
50405050
64506450
50505281
54756504
40544561
40645050
54505440
ENDCHAR
STARTCHAR Hbar
ENCODING 294
SWIDTH 706 0
DWIDTH 8 0
BBX 9 9 0 0
BITMAP
0241034100
0504050500
5609485530
5837454340
0505054700
0738482400
0408265600
0408341300
0644065300
ENDCHAR
STARTCHAR hbar
ENCODING 295
SWIDTH 706 0
DWIDTH 8 0
BBX 9 9 0 0
BITMAP
0241034100
0504050500
5609485530
5837454340
0505054700
0738482400
0408265600
0408341300
0644065300
ENDCHAR
STARTCHAR Itilde
ENCODING 296
SWIDTH 266 0
DWIDTH 3 0
BBX 6 12 -1 0
BITMAP
058453
336640
454740
014200
050400
050400
064500
050500
054500
040500
040400
054500
ENDCHAR
STARTCHAR itilde
ENCODING 297
SWIDTH 266 0
DWIDTH 3 0
BBX 6 12 -1 0
BITMAP
058453
336640
454740
014200
050400
050400
064500
050500
054500
040500
040400
054500
ENDCHAR
STARTCHAR Imacron
ENCODING 298
SWIDTH 266 0
DWIDTH 3 0
BBX 4 11 0 0
BITMAP
4441
5452
1420
5040
5040
6450
5050
5450
4050
4040
5450
ENDCHAR
STARTCHAR imacron
ENCODING 299
SWIDTH 266 0
DWIDTH 3 0
BBX 4 11 0 0
BITMAP
4441
5452
1420
5040
5040
6450
5050
5450
4050
4040
5450
ENDCHAR
STARTCHAR Ibreve
ENCODING 300
SWIDTH 266 0
DWIDTH 3 0
BBX 5 12 -1 0
BITMAP
153440
046640
067620
014200
050400
050400
064500
050500
054500
040500
040400
054500
ENDCHAR
STARTCHAR ibreve
ENCODING 301
SWIDTH 266 0
DWIDTH 3 0
BBX 5 12 -1 0
BITMAP
153440
046640
067620
014200
050400
050400
064500
050500
054500
040500
040400
054500
ENDCHAR
STARTCHAR Iogonek
ENCODING 302
SWIDTH 266 0
DWIDTH 3 0
BBX 3 12 0 -3
BITMAP
1420
5040
5040
6450
5050
5450
4050
4040
5450
4400
6640
0440
ENDCHAR
STARTCHAR iogonek
ENCODING 303
SWIDTH 266 0
DWIDTH 3 0
BBX 3 12 0 -3
BITMAP
1420
5040
5040
6450
5050
5450
4050
4040
5450
4400
6640
0440
ENDCHAR
STARTCHAR Idotaccent
ENCODING 304
SWIDTH 266 0
DWIDTH 3 0
BBX 3 11 0 0
BITMAP
3440
2540
1520
5040
5040
6450
5050
5450
4050
4040
5450
ENDCHAR
STARTCHAR dotlessi
ENCODING 305
SWIDTH 266 0
DWIDTH 3 0
BBX 3 9 0 0
BITMAP
1420
5040
5040
6450
5050
5450
4050
4040
5450
ENDCHAR
STARTCHAR IJ
ENCODING 306
SWIDTH 750 0
DWIDTH 9 0
BBX 9 10 0 -1
BITMAP
1420002420
5040005050
5040004040
6450006440
5051404050
5455336350
4055267050
4040806240
5450052740
0000023000
ENDCHAR
STARTCHAR ij
ENCODING 307
SWIDTH 749 0
DWIDTH 9 0
BBX 9 10 0 -1
BITMAP
1420002420
5040005050
5040004040
6450006440
5051404050
5455336350
4055267050
4040806240
5450052740
0000023000
ENDCHAR
STARTCHAR Jcircumflex
ENCODING 308
SWIDTH 484 0
DWIDTH 6 0
BBX 8 13 -1 -1
BITMAP
00005820
00033640
00045451
00003410
00005040
00004040
00007340
02304140
14417340
06265140
00806230
00245630
00033000
ENDCHAR
STARTCHAR jcircumflex
ENCODING 309
SWIDTH 482 0
DWIDTH 6 0
BBX 8 13 -1 -1
BITMAP
00005820
00033640
00045451
00003410
00005040
00004040
00007340
02304140
14417340
06265140
00806230
00245630
00033000
ENDCHAR
STARTCHAR Kcommaaccent
ENCODING 310
SWIDTH 541 0
DWIDTH 7 0
BBX 7 12 0 -3
BITMAP
14200100
50405430
40453240
54744500
50507000
54753200
40883500
40432410
54506510
00240000
00550000
03620000
ENDCHAR
STARTCHAR kcommaaccent
ENCODING 311
SWIDTH 541 0
DWIDTH 7 0
BBX 7 12 0 -3
BITMAP
14200100
50405430
40453240
54744500
50507000
54753200
40883500
40432410
54506510
00240000
00550000
03620000
ENDCHAR
STARTCHAR kgreenlandic
ENCODING 312
SWIDTH 541 0
DWIDTH 7 0
BBX 7 9 0 0
BITMAP
14200100
50405430
40453240
54744500
50507000
54753200
40883500
40432410
54506510
ENDCHAR
STARTCHAR Lacute
ENCODING 313
SWIDTH 467 0
DWIDTH 6 0
BBX 6 12 0 0
BITMAP
003300
014500
046100
143000
504000
504000
645000
505000
545000
406211
405535
547555
ENDCHAR
STARTCHAR lacute
ENCODING 314
SWIDTH 467 0
DWIDTH 6 0
BBX 6 12 0 0
BITMAP
003300
014500
046100
143000
504000
504000
645000
505000
545000
406211
405535
547555
ENDCHAR
STARTCHAR Lcommaaccent
ENCODING 315
SWIDTH 467 0
DWIDTH 6 0
BBX 6 12 0 -3
BITMAP
142000
504000
504000
645000
505000
545000
406211
405535
547555
004200
033400
055000
ENDCHAR
STARTCHAR lcommaaccent
ENCODING 316
SWIDTH 467 0
DWIDTH 6 0
BBX 6 12 0 -3
BITMAP
142000
504000
504000
645000
505000
545000
406211
405535
547555
004200
033400
055000
ENDCHAR
STARTCHAR Lcaron
ENCODING 317
SWIDTH 467 0
DWIDTH 6 0
BBX 6 10 0 0
BITMAP
000040
142334
504550
504210
645000
505000
545000
406211
405535
547555
ENDCHAR
STARTCHAR lcaron
ENCODING 318
SWIDTH 467 0
DWIDTH 6 0
BBX 6 10 0 0
BITMAP
000040
142334
504550
504210
645000
505000
545000
406211
405535
547555
ENDCHAR
STARTCHAR Ldot
ENCODING 319
SWIDTH 611 0
DWIDTH 7 0
BBX 7 9 0 0
BITMAP
14200000
50400000
50400000
64500330
50500440
54500440
40621100
40553500
54755500
ENDCHAR
STARTCHAR ldotaccent
ENCODING 320
SWIDTH 611 0
DWIDTH 7 0
BBX 7 9 0 0
BITMAP
14200000
50400000
50400000
64500330
50500440
54500440
40621100
40553500
54755500
ENDCHAR
STARTCHAR Lslash
ENCODING 321
SWIDTH 505 0
DWIDTH 6 0
BBX 8 9 -1 0
BITMAP
00340000
00513000
00431000
00746100
15540500
15745100
01544230
00445241
01667460
ENDCHAR
STARTCHAR lslash
ENCODING 322
SWIDTH 505 0
DWIDTH 6 0
BBX 8 9 -1 0
BITMAP
00340000
00513000
00431000
00746100
15540500
15745100
01544230
00445241
01667460
ENDCHAR
STARTCHAR Nacute
ENCODING 323
SWIDTH 598 0
DWIDTH 7 0
BBX 7 12 0 0
BITMAP
00005200
00033300
00065000
15301520
50545050
50455040
64648450
50609040
54745550
40560540
40441460
54516950
ENDCHAR
STARTCHAR nacute
ENCODING 324
SWIDTH 598 0
DWIDTH 7 0
BBX 7 12 0 0
BITMAP
00005200
00033300
00065000
15301520
50545050
50455040
64648450
50609040
54745550
40560540
40441460
54516950
ENDCHAR
STARTCHAR Ncommaaccent
ENCODING 325
SWIDTH 598 0
DWIDTH 7 0
BBX 7 12 0 -3
BITMAP
15301520
50545050
50455040
64648450
50609040
54745550
40560540
40441460
54516950
00051000
00433000
00640000
ENDCHAR
STARTCHAR ncommaaccent
ENCODING 326
SWIDTH 598 0
DWIDTH 7 0
BBX 7 12 0 -3
BITMAP
15301520
50545050
50455040
64648450
50609040
54745550
40560540
40441460
54516950
00051000
00433000
00640000
ENDCHAR
STARTCHAR Ncaron
ENCODING 327
SWIDTH 598 0
DWIDTH 7 0
BBX 7 13 0 0
BITMAP
00101000
00645400
00444200
00256000
15301520
50545050
50455040
64648450
50609040
54745550
40560540
40441460
54516950
ENDCHAR
STARTCHAR ncaron
ENCODING 328
SWIDTH 598 0
DWIDTH 7 0
BBX 7 13 0 0
BITMAP
00101000
00645400
00444200
00256000
15301520
50545050
50455040
64648450
50609040
54745550
40560540
40441460
54516950
ENDCHAR
STARTCHAR napostrophe
ENCODING 329
SWIDTH 807 0
DWIDTH 10 0
BBX 10 9 0 0
BITMAP
0403420340
3345190514
6505243522
2008465843
0005333532
0007474643
0005362432
0004315081
0016524782
ENDCHAR
STARTCHAR Eng
ENCODING 330
SWIDTH 595 0
DWIDTH 7 0
BBX 7 13 0 -4
BITMAP
15300200
50645360
40454040
64648250
50609250
54845240
50560650
40441460
54516540
01267650
05241530
05444200
00100000
ENDCHAR
STARTCHAR eng
ENCODING 331
SWIDTH 595 0
DWIDTH 7 0
BBX 7 13 0 -4
BITMAP
15300200
50645360
40454040
64648250
50609250
54845240
50560650
40441460
54516540
01267650
05241530
05444200
00100000
ENDCHAR
STARTCHAR Omacron
ENCODING 332
SWIDTH 612 0
DWIDTH 7 0
BBX 7 12 0 -1
BITMAP
00344200
00544300
04441200
13043660
07655650
36606450
31504050
54503460
50535660
50762090
57654670
03000000
ENDCHAR
STARTCHAR omacron
ENCODING 333
SWIDTH 612 0
DWIDTH 7 0
BBX 7 12 0 -1
BITMAP
00344200
00544300
04441200
13043660
07655650
36606450
31504050
54503460
50535660
50762090
57654670
03000000
ENDCHAR
STARTCHAR Obreve
ENCODING 334
SWIDTH 612 0
DWIDTH 7 0
BBX 7 13 0 -1
BITMAP
01534400
00467400
00576200
04441200
13043660
07655650
36606450
31504050
54503460
50535660
50762090
57654670
03000000
ENDCHAR
STARTCHAR obreve
ENCODING 335
SWIDTH 612 0
DWIDTH 7 0
BBX 7 13 0 -1
BITMAP
01534400
00467400
00576200
04441200
13043660
07655650
36606450
31504050
54503460
50535660
50762090
57654670
03000000
ENDCHAR
STARTCHAR Ohungarumlaut
ENCODING 336
SWIDTH 612 0
DWIDTH 7 0
BBX 7 13 0 -1
BITMAP
00033420
00147340
00565500
04441200
13043660
07655650
36606450
31504050
54503460
50535660
50762090
57654670
03000000
ENDCHAR
STARTCHAR ohungarumlaut
ENCODING 337
SWIDTH 612 0
DWIDTH 7 0
BBX 7 13 0 -1
BITMAP
00033420
00147340
00565500
04441200
13043660
07655650
36606450
31504050
54503460
50535660
50762090
57654670
03000000
ENDCHAR
STARTCHAR OE
ENCODING 338
SWIDTH 831 0
DWIDTH 10 0
BBX 10 10 0 -1
BITMAP
0444153433
1304366525
0765566545
3660546110
3150405350
5450546450
5053646421
5076145535
5766697545
0300000000
ENDCHAR
STARTCHAR oe
ENCODING 339
SWIDTH 831 0
DWIDTH 10 0
BBX 10 10 0 -1
BITMAP
0444153433
1304366525
0765566545
3660546110
3150405350
5450546450
5053646421
5076145535
5766697545
0300000000
ENDCHAR
STARTCHAR Racute
ENCODING 340
SWIDTH 532 0
DWIDTH 6 0
BBX 7 13 0 -1
BITMAP
00015000
00053200
00064000
04510000
55056200
44650240
64546720
50784510
51645100
53874500
40423320
51504330
03101100
ENDCHAR
STARTCHAR racute
ENCODING 341
SWIDTH 532 0
DWIDTH 6 0
BBX 7 13 0 -1
BITMAP
00015000
00053200
00064000
04510000
55056200
44650240
64546720
50784510
51645100
53874500
40423320
51504330
03101100
ENDCHAR
STARTCHAR Rcommaaccent
ENCODING 342
SWIDTH 532 0
DWIDTH 6 0
BBX 7 12 0 -3
BITMAP
04500000
55056200
44650240
64546720
50784510
51645100
53874500
40423320
51504330
03341100
00450000
03610000
ENDCHAR
STARTCHAR rcommaaccent
ENCODING 343
SWIDTH 532 0
DWIDTH 6 0
BBX 7 12 0 -3
BITMAP
04500000
55056200
44650240
64546720
50784510
51645100
53874500
40423320
51504330
03341100
00450000
03610000
ENDCHAR
STARTCHAR Rcaron
ENCODING 344
SWIDTH 532 0
DWIDTH 6 0
BBX 7 14 0 -1
BITMAP
00101000
04555200
01365000
00482000
04500000
55056200
44650240
64546720
50784510
51645100
53874500
40423320
51504330
03101100
ENDCHAR
STARTCHAR rcaron
ENCODING 345
SWIDTH 532 0
DWIDTH 6 0
BBX 7 14 0 -1
BITMAP
00101000
04555200
01365000
00482000
04500000
55056200
44650240
64546720
50784510
51645100
53874500
40423320
51504330
03101100
ENDCHAR
STARTCHAR Sacute
ENCODING 346
SWIDTH 442 0
DWIDTH 5 0
BBX 6 13 0 -1
BITMAP
000510
005320
006400
124450
685022
507440
235200
070500
014530
008150
646423
545650
100000
ENDCHAR
STARTCHAR sacute
ENCODING 347
SWIDTH 442 0
DWIDTH 5 0
BBX 6 13 0 -1
BITMAP
000510
005320
006400
124450
685022
507440
235200
070500
014530
008150
646423
545650
100000
ENDCHAR
STARTCHAR Scircumflex
ENCODING 348
SWIDTH 442 0
DWIDTH 5 0
BBX 6 13 0 -1
BITMAP
025700
056320
153540
124450
685022
507440
235200
070500
014530
008150
646423
545650
100000
ENDCHAR
STARTCHAR scircumflex
ENCODING 349
SWIDTH 442 0
DWIDTH 5 0
BBX 6 13 0 -1
BITMAP
025700
056320
153540
124450
685022
507440
235200
070500
014530
008150
646423
545650
100000
ENDCHAR
STARTCHAR Scedilla
ENCODING 350
SWIDTH 442 0
DWIDTH 5 0
BBX 6 12 0 -3
BITMAP
124450
685022
507440
235200
070500
014530
008150
646423
546850
115400
065700
032000
ENDCHAR
STARTCHAR scedilla
ENCODING 351
SWIDTH 442 0
DWIDTH 5 0
BBX 6 12 0 -3
BITMAP
124450
685022
507440
235200
070500
014530
008150
646423
546850
115400
065700
032000
ENDCHAR
STARTCHAR Scaron
ENCODING 352
SWIDTH 442 0
DWIDTH 5 0
BBX 6 14 0 -1
BITMAP
010100
154540
045410
036500
124450
685022
507440
235200
070500
014530
008150
646423
545650
100000
ENDCHAR
STARTCHAR scaron
ENCODING 353
SWIDTH 442 0
DWIDTH 5 0
BBX 6 14 0 -1
BITMAP
010100
154540
045410
036500
124450
685022
507440
235200
070500
014530
008150
646423
545650
100000
ENDCHAR
STARTCHAR Tcommaaccent
ENCODING 354
SWIDTH 453 0
DWIDTH 5 0
BBX 7 12 -1 -3
BITMAP
04454510
14031040
05656430
00455000
00414000
00424000
00436000
00404000
00446000
00150000
00532000
01730000
ENDCHAR
STARTCHAR tcommaaccent
ENCODING 355
SWIDTH 453 0
DWIDTH 5 0
BBX 7 12 -1 -3
BITMAP
04454510
14031040
05656430
00455000
00414000
00424000
00436000
00404000
00446000
00150000
00532000
01730000
ENDCHAR
STARTCHAR Tcaron
ENCODING 356
SWIDTH 453 0
DWIDTH 5 0
BBX 7 13 -1 0
BITMAP
00001000
00645500
00434300
00167000
04454510
14031040
05656430
00455000
00414000
00424000
00436000
00404000
00446000
ENDCHAR
STARTCHAR tcaron
ENCODING 357
SWIDTH 453 0
DWIDTH 5 0
BBX 7 13 -1 0
BITMAP
00001000
00645500
00434300
00167000
04454510
14031040
05656430
00455000
00414000
00424000
00436000
00404000
00446000
ENDCHAR
STARTCHAR Tbar
ENCODING 358
SWIDTH 455 0
DWIDTH 5 0
BBX 7 10 -1 -1
BITMAP
03342310
14133150
06566430
00455000
02646300
04000400
01758200
00414000
00536000
00021000
ENDCHAR
STARTCHAR tbar
ENCODING 359
SWIDTH 455 0
DWIDTH 5 0
BBX 7 10 -1 -1
BITMAP
03342310
14133150
06566430
00455000
02646300
04000400
01758200
00414000
00536000
00021000
ENDCHAR
STARTCHAR Utilde
ENCODING 360
SWIDTH 583 0
DWIDTH 7 0
BBX 7 13 0 -1
BITMAP
00474540
02376410
03545600
04303410
13505140
23504140
54507350
50404040
64506450
40537540
50761360
56666950
04000000
ENDCHAR
STARTCHAR utilde
ENCODING 361
SWIDTH 583 0
DWIDTH 7 0
BBX 7 13 0 -1
BITMAP
00474540
02376410
03545600
04303410
13505140
23504140
54507350
50404040
64506450
40537540
50761360
56666950
04000000
ENDCHAR
STARTCHAR Umacron
ENCODING 362
SWIDTH 583 0
DWIDTH 7 0
BBX 7 12 0 -1
BITMAP
00444000
00645200
04303410
13505140
23504140
54507350
50404040
64506450
40537540
50761360
56666950
04000000
ENDCHAR
STARTCHAR umacron
ENCODING 363
SWIDTH 583 0
DWIDTH 7 0
BBX 7 12 0 -1
BITMAP
00444000
00645200
04303410
13505140
23504140
54507350
50404040
64506450
40537540
50761360
56666950
04000000
ENDCHAR
STARTCHAR Ubreve
ENCODING 364
SWIDTH 583 0
DWIDTH 7 0
BBX 7 13 0 -1
BITMAP
03515300
03366300
01767000
04303410
13505140
23504140
54507350
50404040
64506450
40537540
50761360
56666950
04000000
ENDCHAR
STARTCHAR ubreve
ENCODING 365
SWIDTH 583 0
DWIDTH 7 0
BBX 7 13 0 -1
BITMAP
03515300
03366300
01767000
04303410
13505140
23504140
54507350
50404040
64506450
40537540
50761360
56666950
04000000
ENDCHAR
STARTCHAR Uring
ENCODING 366
SWIDTH 583 0
DWIDTH 7 0
BBX 7 14 0 -1
BITMAP
00243000
00463000
03675300
00546000
04303410
13505140
23504140
54507350
50404040
64506450
40537540
50761360
56666950
04000000
ENDCHAR
STARTCHAR uring
ENCODING 367
SWIDTH 583 0
DWIDTH 7 0
BBX 7 14 0 -1
BITMAP
00243000
00463000
03675300
00546000
04303410
13505140
23504140
54507350
50404040
64506450
40537540
50761360
56666950
04000000
ENDCHAR
STARTCHAR Uhungarumlaut
ENCODING 368
SWIDTH 583 0
DWIDTH 7 0
BBX 7 13 0 -1
BITMAP
00052500
00437320
00647300
04303410
13505140
23504140
54507350
50404040
64506450
40537540
50761360
56666950
04000000
ENDCHAR
STARTCHAR uhungarumlaut
ENCODING 369
SWIDTH 583 0
DWIDTH 7 0
BBX 7 13 0 -1
BITMAP
00052500
00437320
00647300
04303410
13505140
23504140
54507350
50404040
64506450
40537540
50761360
56666950
04000000
ENDCHAR
STARTCHAR Uogonek
ENCODING 370
SWIDTH 583 0
DWIDTH 7 0
BBX 7 12 0 -3
BITMAP
04303410
13505140
23504140
54507350
50404040
64506450
40537540
50761360
56667950
04005500
00006540
00000540
ENDCHAR
STARTCHAR uogonek
ENCODING 371
SWIDTH 583 0
DWIDTH 7 0
BBX 7 12 0 -3
BITMAP
04303410
13505140
23504140
54507350
50404040
64506450
40537540
50761360
56667950
04005500
00006540
00000540
ENDCHAR
STARTCHAR Wcircumflex
ENCODING 372
SWIDTH 735 0
DWIDTH 9 0
BBX 9 12 0 -1
BITMAP
0004730000
0023640000
0136452200
6522435250
5147045040
6458668340
4154544410
0455663400
0760852600
0540670400
0575362500
0030003000
ENDCHAR
STARTCHAR wcircumflex
ENCODING 373
SWIDTH 735 0
DWIDTH 9 0
BBX 9 12 0 -1
BITMAP
0004730000
0023640000
0136452200
6522435250
5147045040
6458668340
4154544410
0455663400
0760852600
0540670400
0575362500
0030003000
ENDCHAR
STARTCHAR Ycircumflex
ENCODING 374
SWIDTH 484 0
DWIDTH 6 0
BBX 8 12 -1 0
BITMAP
00168000
00534300
00545500
00100200
15601561
14155050
03647340
00541500
00092500
00324200
00505000
00453000
ENDCHAR
STARTCHAR ycircumflex
ENCODING 375
SWIDTH 484 0
DWIDTH 6 0
BBX 8 12 -1 0
BITMAP
00168000
00534300
00545500
00100200
15601561
14155050
03647340
00541500
00092500
00324200
00505000
00453000
ENDCHAR
STARTCHAR Ydieresis
ENCODING 376
SWIDTH 484 0
DWIDTH 6 0
BBX 8 11 -1 0
BITMAP
01555600
00655500
00100200
15601561
14155050
03647340
00541500
00092500
00324200
00505000
00453000
ENDCHAR
STARTCHAR Zacute
ENCODING 377
SWIDTH 458 0
DWIDTH 6 0
BBX 7 12 -1 0
BITMAP
00004200
00033400
00055000
01333300
04142430
03465740
00074500
00323300
00825000
04153200
15083410
05764600
ENDCHAR
STARTCHAR zacute
ENCODING 378
SWIDTH 458 0
DWIDTH 6 0
BBX 7 12 -1 0
BITMAP
00004200
00033400
00055000
01333300
04142430
03465740
00074500
00323300
00825000
04153200
15083410
05764600
ENDCHAR
STARTCHAR Zdotaccent
ENCODING 379
SWIDTH 458 0
DWIDTH 6 0
BBX 7 11 -1 0
BITMAP
00155000
00065000
01343300
04142430
03465740
00074500
00323300
00825000
04153200
15083410
05764600
ENDCHAR
STARTCHAR zdotaccent
ENCODING 380
SWIDTH 458 0
DWIDTH 6 0
BBX 7 11 -1 0
BITMAP
00155000
00065000
01343300
04142430
03465740
00074500
00323300
00825000
04153200
15083410
05764600
ENDCHAR
STARTCHAR Zcaron
ENCODING 381
SWIDTH 458 0
DWIDTH 6 0
BBX 7 13 -1 0
BITMAP
00001000
00645500
00444200
00167000
01333300
04142430
03465740
00074500
00323300
00825000
04153200
15083410
05764600
ENDCHAR
STARTCHAR zcaron
ENCODING 382
SWIDTH 458 0
DWIDTH 6 0
BBX 7 13 -1 0
BITMAP
00001000
00645500
00444200
00167000
01333300
04142430
03465740
00074500
00323300
00825000
04153200
15083410
05764600
ENDCHAR
STARTCHAR AEacute
ENCODING 508
SWIDTH 797 0
DWIDTH 10 0
BBX 11 12 -1 0
BITMAP
000000330000
000001450000
000004600000
000002433310
000167055140
000505075430
002739352000
005055063400
017267375300
050615183200
231636155240
056006475520
ENDCHAR
STARTCHAR aeacute
ENCODING 509
SWIDTH 797 0
DWIDTH 10 0
BBX 11 12 -1 0
BITMAP
000000330000
000001450000
000004600000
000002433310
000167055140
000505075430
002739352000
005055063400
017267375300
050615183200
231636155240
056006475520
ENDCHAR
STARTCHAR Oslashacute
ENCODING 510
SWIDTH 612 0
DWIDTH 7 0
BBX 7 13 0 -1
BITMAP
00004200
00033400
00055000
04441300
13046360
07665160
36655550
31543350
54807460
52376660
55182090
52554670
04300000
ENDCHAR
STARTCHAR oslashacute
ENCODING 511
SWIDTH 612 0
DWIDTH 7 0
BBX 7 13 0 -1
BITMAP
00004200
00033400
00055000
04441300
13046360
07665160
36655550
31543350
54807460
52376660
55182090
52554670
04300000
ENDCHAR
STARTCHAR dotlessj
ENCODING 567
SWIDTH 482 0
DWIDTH 6 0
BBX 7 10 -1 -1
BITMAP
00003410
00005040
00004040
00007340
02304140
14417340
06265140
00806230
00245630
00033000
ENDCHAR
STARTCHAR circumflex
ENCODING 710
SWIDTH 308 0
DWIDTH 4 0
BBX 4 3 0 9
BITMAP
1680
5443
5454
ENDCHAR
STARTCHAR caron
ENCODING 711
SWIDTH 310 0
DWIDTH 4 0
BBX 4 4 0 9
BITMAP
0010
6455
4343
1670
ENDCHAR
STARTCHAR breve
ENCODING 728
SWIDTH 333 0
DWIDTH 4 0
BBX 4 3 0 9
BITMAP
5445
4575
4755
ENDCHAR
STARTCHAR dotaccent
ENCODING 729
SWIDTH 166 0
DWIDTH 2 0
BBX 2 2 0 9
BITMAP
55
55
ENDCHAR
STARTCHAR ring
ENCODING 730
SWIDTH 309 0
DWIDTH 4 0
BBX 4 4 0 9
BITMAP
0440
4353
6765
4453
ENDCHAR
STARTCHAR ogonek
ENCODING 731
SWIDTH 226 0
DWIDTH 3 0
BBX 3 4 0 -3
BITMAP
4510
4400
7540
0530
ENDCHAR
STARTCHAR tilde
ENCODING 732
SWIDTH 410 0
DWIDTH 5 0
BBX 5 3 0 9
BITMAP
168550
544540
546900
ENDCHAR
STARTCHAR hungarumlaut
ENCODING 733
SWIDTH 361 0
DWIDTH 4 0
BBX 5 3 0 9
BITMAP
052510
437320
646400
ENDCHAR
STARTCHAR uni0312
ENCODING 786
SWIDTH 202 0
DWIDTH 2 0
BBX 3 4 0 5
BITMAP
0400
3340
6500
2000
ENDCHAR
STARTCHAR uni0315
ENCODING 789
SWIDTH 202 0
DWIDTH 2 0
BBX 3 4 0 5
BITMAP
0400
3340
6500
2000
ENDCHAR
STARTCHAR uni0326
ENCODING 806
SWIDTH 201 0
DWIDTH 2 0
BBX 3 3 0 -3
BITMAP
0510
4330
6400
ENDCHAR
STARTCHAR Wgrave
ENCODING 7808
SWIDTH 735 0
DWIDTH 9 0
BBX 9 12 0 -1
BITMAP
0004300000
0005400000
0103600200
6522435250
5147045040
6458668340
4154544410
0455663400
0760852600
0540670400
0575362500
0030003000
ENDCHAR
STARTCHAR wgrave
ENCODING 7809
SWIDTH 735 0
DWIDTH 9 0
BBX 9 12 0 -1
BITMAP
0004300000
0005400000
0103600200
6522435250
5147045040
6458668340
4154544410
0455663400
0760852600
0540670400
0575362500
0030003000
ENDCHAR
STARTCHAR Wacute
ENCODING 7810
SWIDTH 735 0
DWIDTH 9 0
BBX 9 12 0 -1
BITMAP
0000051000
0000432000
0100640200
6522535250
5147045040
6458668340
4154544410
0455663400
0760852600
0540670400
0575362500
0030003000
ENDCHAR
STARTCHAR wacute
ENCODING 7811
SWIDTH 735 0
DWIDTH 9 0
BBX 9 12 0 -1
BITMAP
0000051000
0000432000
0100640200
6522535250
5147045040
6458668340
4154544410
0455663400
0760852600
0540670400
0575362500
0030003000
ENDCHAR
STARTCHAR Wdieresis
ENCODING 7812
SWIDTH 735 0
DWIDTH 9 0
BBX 9 11 0 -1
BITMAP
0044543000
0145544200
6522435250
5147045040
6458668340
4154544410
0455663400
0760852600
0540670400
0575362500
0030003000
ENDCHAR
STARTCHAR wdieresis
ENCODING 7813
SWIDTH 735 0
DWIDTH 9 0
BBX 9 11 0 -1
BITMAP
0044543000
0145544200
6522435250
5147045040
6458668340
4154544410
0455663400
0760852600
0540670400
0575362500
0030003000
ENDCHAR
STARTCHAR Ygrave
ENCODING 7922
SWIDTH 484 0
DWIDTH 6 0
BBX 8 11 -1 0
BITMAP
00260000
00423000
00154200
15601561
14155050
03647340
00541500
00092500
00324200
00505000
00453000
ENDCHAR
STARTCHAR ygrave
ENCODING 7923
SWIDTH 484 0
DWIDTH 6 0
BBX 8 11 -1 0
BITMAP
00260000
00423000
00154200
15601561
14155050
03647340
00541500
00092500
00324200
00505000
00453000
ENDCHAR
STARTCHAR endash
ENCODING 8211
SWIDTH 591 0
DWIDTH 7 0
BBX 7 3 0 3
BITMAP
11101000
53747450
54646450
ENDCHAR
STARTCHAR emdash
ENCODING 8212
SWIDTH 726 0
DWIDTH 9 0
BBX 9 3 0 3
BITMAP
1100000000
5447474430
5446464440
ENDCHAR
STARTCHAR quoteleft
ENCODING 8216
SWIDTH 291 0
DWIDTH 4 0
BBX 4 5 0 4
BITMAP
0452
0523
4560
5040
6530
ENDCHAR
STARTCHAR quoteright
ENCODING 8217
SWIDTH 291 0
DWIDTH 4 0
BBX 4 5 0 4
BITMAP
0452
0523
4560
5040
6530
ENDCHAR
STARTCHAR quotesinglbase
ENCODING 8218
SWIDTH 228 0
DWIDTH 3 0
BBX 4 4 -1 -2
BITMAP
0151
0505
3150
0520
ENDCHAR
STARTCHAR quotedblleft
ENCODING 8220
SWIDTH 532 0
DWIDTH 6 0
BBX 7 5 0 4
BITMAP
04525510
05244220
45654500
50551400
65366100
ENDCHAR
STARTCHAR quotedblright
ENCODING 8221
SWIDTH 532 0
DWIDTH 6 0
BBX 7 5 0 4
BITMAP
04525510
05244220
45654500
50551400
65366100
ENDCHAR
STARTCHAR quotedblbase
ENCODING 8222
SWIDTH 448 0
DWIDTH 5 0
BBX 7 4 -1 -2
BITMAP
01513400
05063320
31551500
05225000
ENDCHAR
STARTCHAR dagger
ENCODING 8224
SWIDTH 453 0
DWIDTH 5 0
BBX 6 11 0 -1
BITMAP
001000
034600
252530
443532
583661
041400
044500
041500
040500
050500
025300
ENDCHAR
STARTCHAR daggerdbl
ENCODING 8225
SWIDTH 462 0
DWIDTH 6 0
BBX 6 11 0 -1
BITMAP
001100
025600
253430
533533
574651
032400
154510
552643
571652
050500
015400
ENDCHAR
STARTCHAR bullet
ENCODING 8226
SWIDTH 275 0
DWIDTH 3 0
BBX 3 3 0 3
BITMAP
0420
3140
1430
ENDCHAR
STARTCHAR ellipsis
ENCODING 8230
SWIDTH 605 0
DWIDTH 7 0
BBX 7 3 0 -1
BITMAP
45343550
55435550
12020110
ENDCHAR
STARTCHAR perthousand
ENCODING 8240
SWIDTH 1249 0
DWIDTH 15 0
BBX 15 9 0 0
BITMAP
1321000000000000
5415155000000000
3453244000000000
3652544000000000
7144605433053400
0332535535545550
0000453321513330
0001343550644430
0001433547353740
ENDCHAR
STARTCHAR guilsinglleft
ENCODING 8249
SWIDTH 359 0
DWIDTH 4 0
BBX 4 6 0 1
BITMAP
0055
3406
6160
5533
0425
0031
ENDCHAR
STARTCHAR guilsinglright
ENCODING 8250
SWIDTH 359 0
DWIDTH 4 0
BBX 4 6 0 1
BITMAP
3520
5134
0436
2438
5150
0400
ENDCHAR
STARTCHAR fraction
ENCODING 8260
SWIDTH 266 0
DWIDTH 3 0
BBX 4 8 0 0
BITMAP
0441
0440
0640
2240
5240
4320
4400
4400
ENDCHAR
STARTCHAR Euro
ENCODING 8364
SWIDTH 690 0
DWIDTH 8 0
BBX 8 10 0 -1
BITMAP
00154300
00400546
02556545
05745000
05605000
54835000
54514343
01435615
00765644
00130000
ENDCHAR
STARTCHAR partialdiff
ENCODING 8706
SWIDTH 519 0
DWIDTH 6 0
BBX 8 10 -1 -1
BITMAP
00014200
00050500
00041500
00035710
00435130
15526460
14685150
06105341
00452751
00003000
ENDCHAR
STARTCHAR minus
ENCODING 8722
SWIDTH 467 0
DWIDTH 6 0
BBX 6 3 0 2
BITMAP
545652
545553
110010
ENDCHAR
STARTCHAR fi
ENCODING 64257
SWIDTH 741 0
DWIDTH 9 0
BBX 9 9 0 0
BITMAP
1434322410
5055255040
4065455040
5451107340
5063505040
5464507340
4050004140
4040004040
5450006430
ENDCHAR
STARTCHAR fl
ENCODING 64258
SWIDTH 942 0
DWIDTH 11 0
BBX 12 9 0 0
BITMAP
143432241000
505525504000
406545504000
545110734000
506350504000
546450734000
405000417121
404000408325
545000648554
ENDCHAR
STARTCHAR .notdef
ENCODING -1
SWIDTH 200 0
DWIDTH 2 0
BBX 1 1 0 0
BITMAP
00
ENDCHAR
STARTCHAR .null
ENCODING -1
SWIDTH 0 0
DWIDTH 0 0
BBX 1 1 0 0
BITMAP
00
ENDCHAR
STARTCHAR nonmarkingreturn
ENCODING -1
SWIDTH 200 0
DWIDTH 2 0
BBX 1 1 0 0
BITMAP
00
ENDCHAR
ENDFONT
